<?xml version="1.0" encoding="utf-8"?>
<!-- Generator: Adobe Illustrator 16.0.0, SVG Export Plug-In . SVG Version: 6.00 Build 0)  -->
<!DOCTYPE svg PUBLIC "-//W3C//DTD SVG 1.1//EN" "http://www.w3.org/Graphics/SVG/1.1/DTD/svg11.dtd">
<svg version="1.1" id="Layer_1" xmlns="http://www.w3.org/2000/svg" xmlns:xlink="http://www.w3.org/1999/xlink" x="0px" y="0px"
	 width="24.5px" height="24.5px" viewBox="0 0 24.5 24.5" enable-background="new 0 0 24.5 24.5" xml:space="preserve">
<g transform="translate(0.25 0.25)">
	<path fill="#4C9F70" d="M12,0C5.373,0,0,5.373,0,12s5.373,12,12,12s12-5.373,12-12S18.627,0,12,0z M12,22C6.477,22,2,17.523,2,12
		C2,6.477,6.477,2,12,2c5.523,0,10,4.477,10,10C22,17.523,17.523,22,12,22z"/>
	<path fill="#4C9F70" d="M12.717,5.063c-2.173-0.396-4.256,1.045-4.652,3.218C8.021,8.519,8,8.759,8,9c0,0.552,0.448,1,1,1
		s1-0.448,1-1c-0.001-1.104,0.894-2.001,1.998-2.002c0.125,0,0.25,0.012,0.373,0.035c0.811,0.157,1.441,0.791,1.6,1.6
		c0.162,0.85-0.242,1.708-1,2.125c-1.244,0.721-1.999,2.061-1.971,3.499V15c0,0.553,0.448,1,1,1c0.553,0,1-0.447,1-1v-0.743
		c-0.025-0.708,0.329-1.376,0.93-1.752c1.938-1.063,2.646-3.495,1.58-5.432C14.93,6.017,13.902,5.278,12.717,5.063z"/>
	<path fill="#4C9F70" d="M12,17L12,17c0.553,0,1,0.447,1,1l0,0c0,0.553-0.447,1-1,1l0,0c-0.552,0-1-0.447-1-1l0,0
		C11,17.447,11.448,17,12,17z"/>
</g>
</svg>
