<?xml version="1.0" encoding="utf-8"?>
<!-- Generator: Adobe Illustrator 16.0.0, SVG Export Plug-In . SVG Version: 6.00 Build 0)  -->
<!DOCTYPE svg PUBLIC "-//W3C//DTD SVG 1.1//EN" "http://www.w3.org/Graphics/SVG/1.1/DTD/svg11.dtd">
<svg version="1.1" id="Layer" xmlns="http://www.w3.org/2000/svg" xmlns:xlink="http://www.w3.org/1999/xlink" x="0px" y="0px"
	 width="320.003px" height="384px" viewBox="95.993 64 320.003 384" enable-background="new 95.993 64 320.003 384"
	 xml:space="preserve">
<path fill="#85878A" d="M256,64c-8.832,0-16,7.168-16,16v319.192L123.584,276.968c-6.088-6.392-16.208-6.655-22.624-0.552
	c-6.4,6.096-6.648,16.216-0.552,22.616l132.96,139.592C239.416,444.672,247.448,448,256,448c8.544,0,16.584-3.328,22.896-9.656
	l132.688-139.312c6.096-6.4,5.84-16.521-0.552-22.616c-6.393-6.104-16.521-5.848-22.616,0.552L272,399.704V80
	C272,71.168,264.832,64,256,64z"/>
</svg>
