<?xml version="1.0" encoding="utf-8"?>
<!-- Generator: Adobe Illustrator 16.0.0, SVG Export Plug-In . SVG Version: 6.00 Build 0)  -->
<!DOCTYPE svg PUBLIC "-//W3C//DTD SVG 1.1//EN" "http://www.w3.org/Graphics/SVG/1.1/DTD/svg11.dtd">
<svg version="1.1" id="Layer" xmlns="http://www.w3.org/2000/svg" xmlns:xlink="http://www.w3.org/1999/xlink" x="0px" y="0px"
	 width="384px" height="320.003px" viewBox="-31.999 32 384 320.003" enable-background="new -31.999 32 384 320.003"
	 xml:space="preserve">
<path fill="#85878A" d="M-31.999,191.996c0,8.833,7.169,16,16.001,16h319.191L180.968,324.412
	c-6.391,6.088-6.654,16.207-0.553,22.624c6.096,6.399,16.217,6.647,22.617,0.552l139.592-132.961
	c6.049-6.047,9.375-14.08,9.377-22.63c0-8.546-3.33-16.585-9.656-22.898L203.033,36.413c-6.4-6.097-16.521-5.84-22.617,0.55
	c-6.104,6.395-5.846,16.52,0.553,22.616l122.736,116.417H-15.999C-24.83,175.995-31.999,183.163-31.999,191.996z"/>
</svg>
