<svg xmlns="http://www.w3.org/2000/svg" width="19.051" height="19.013" viewBox="0 0 19.051 19.013"><defs><style>.a{fill:#fff;stroke:#fff;}</style></defs><path class="a" d="M17.34.662a2.224,2.224,0,0,0-2.1-.6l-12,2.527A3.746,3.746,0,0,0,1.1,8.95l1.288,1.288a.75.75,0,0,1,.22.531v2.376a2.224,2.224,0,0,0,.225.964l-.006.005.02.019A2.25,2.25,0,0,0,3.868,15.15l.019.019.005-.006a2.224,2.224,0,0,0,.964.225H7.233a.75.75,0,0,1,.53.219L9.051,16.9a3.722,3.722,0,0,0,2.64,1.1,3.787,3.787,0,0,0,1.2-.2A3.7,3.7,0,0,0,15.4,14.813L17.934,2.786A2.231,2.231,0,0,0,17.34.662ZM3.451,9.179,2.161,7.891A2.2,2.2,0,0,1,1.62,5.585,2.233,2.233,0,0,1,3.495,4.066l11.881-2.5L4.107,12.835V10.769A2.233,2.233,0,0,0,3.451,9.179Zm10.478,5.377a2.25,2.25,0,0,1-3.817,1.284l-1.29-1.29a2.233,2.233,0,0,0-1.589-.658H5.167L16.437,2.625Z" transform="translate(0.537 0.513)"/></svg>