<?xml version="1.0" encoding="utf-8"?>
<!-- Generator: Adobe Illustrator 16.0.0, SVG Export Plug-In . SVG Version: 6.00 Build 0)  -->
<!DOCTYPE svg PUBLIC "-//W3C//DTD SVG 1.1//EN" "http://www.w3.org/Graphics/SVG/1.1/DTD/svg11.dtd">
<svg version="1.1" id="Capa_1" xmlns="http://www.w3.org/2000/svg" xmlns:xlink="http://www.w3.org/1999/xlink" x="0px" y="0px"
	 width="414.297px" height="414.299px" viewBox="0 0 414.297 414.299" enable-background="new 0 0 414.297 414.299"
	 xml:space="preserve">
<path fill="#F3583A" d="M3.663,410.637c2.441,2.44,5.64,3.661,8.839,3.661c3.199,0,6.398-1.221,8.839-3.661l185.809-185.81
	l185.81,185.811c2.441,2.44,5.641,3.661,8.84,3.661s6.398-1.221,8.84-3.661c4.881-4.881,4.881-12.796,0-17.679l-185.811-185.81
	l185.811-185.81c4.881-4.882,4.881-12.796,0-17.678c-4.883-4.882-12.797-4.882-17.68,0l-185.81,185.81L21.34,3.663
	c-4.882-4.882-12.796-4.882-17.678,0c-4.882,4.881-4.882,12.796,0,17.678l185.81,185.809L3.663,392.959
	C-1.219,397.841-1.219,405.756,3.663,410.637z"/>
</svg>
