<?xml version="1.0" encoding="utf-8"?>
<!-- Generator: Adobe Illustrator 16.0.0, SVG Export Plug-In . SVG Version: 6.00 Build 0)  -->
<!DOCTYPE svg PUBLIC "-//W3C//DTD SVG 1.1//EN" "http://www.w3.org/Graphics/SVG/1.1/DTD/svg11.dtd">
<svg version="1.1" id="Layer_1" xmlns="http://www.w3.org/2000/svg" xmlns:xlink="http://www.w3.org/1999/xlink" x="0px" y="0px"
	 width="19.875px" height="19.875px" viewBox="0 0 19.875 19.875" enable-background="new 0 0 19.875 19.875" xml:space="preserve">
<path fill="#FFFFFF" d="M19.5,9.937c0.037,0.44-0.288,0.828-0.729,0.866c-0.439,0.038-0.828-0.288-0.865-0.728
	c-0.005-0.046-0.005-0.092,0-0.139c-0.006-4.399-3.57-7.964-7.97-7.969C9.496,1.93,9.17,1.542,9.208,1.102
	c0.034-0.387,0.34-0.694,0.728-0.728C15.215,0.379,19.494,4.658,19.5,9.937z M13.125,10.738c0.439,0.037,0.828-0.289,0.865-0.729
	c0.039-0.44-0.287-0.828-0.727-0.866c-0.047-0.004-0.094-0.004-0.139,0H11.31c-0.14-0.239-0.338-0.437-0.577-0.576V5.956
	c0.038-0.44-0.288-0.828-0.728-0.866c-0.44-0.038-0.828,0.288-0.866,0.728c-0.004,0.046-0.004,0.093,0,0.139v2.611
	c-0.761,0.438-1.022,1.41-0.584,2.171c0.438,0.76,1.41,1.021,2.17,0.583c0.243-0.14,0.444-0.341,0.584-0.583H13.125z M1.831,5.784
	c-0.442,0-0.8,0.358-0.8,0.8c0,0.442,0.358,0.8,0.8,0.8s0.8-0.358,0.8-0.8l0,0C2.631,6.142,2.273,5.784,1.831,5.784z M1.969,9.94
	c0-0.442-0.358-0.8-0.8-0.8s-0.8,0.358-0.8,0.8s0.358,0.8,0.8,0.8l0,0C1.611,10.74,1.969,10.382,1.969,9.94c0-0.001,0-0.002,0-0.003
	V9.94z M9.937,17.908c-0.442,0-0.8,0.358-0.8,0.801c0,0.441,0.358,0.799,0.8,0.799s0.8-0.357,0.8-0.799l0,0
	c0.002-0.442-0.355-0.802-0.797-0.803c-0.001,0-0.002,0-0.003,0V17.908z M3.737,2.933c-0.442,0-0.8,0.358-0.8,0.8s0.358,0.8,0.8,0.8
	s0.8-0.358,0.8-0.8l0,0l0,0c0.001-0.442-0.356-0.801-0.798-0.802L3.737,2.933z M6.572,1.048c-0.442,0-0.8,0.358-0.8,0.8
	s0.358,0.8,0.8,0.8c0.441,0,0.8-0.358,0.8-0.8l0,0l0,0c0.001-0.442-0.355-0.801-0.797-0.803c0,0-0.001,0-0.001,0L6.572,1.048z
	 M1.829,12.501c-0.442,0-0.8,0.359-0.8,0.801c0,0.441,0.358,0.8,0.8,0.8s0.8-0.358,0.8-0.8l0,0
	C2.629,12.861,2.271,12.501,1.829,12.501z M3.737,15.352c-0.442,0-0.8,0.358-0.8,0.8s0.358,0.801,0.8,0.801
	c0.441,0,0.8-0.359,0.8-0.801l0,0c0.001-0.441-0.356-0.801-0.798-0.802l0,0L3.737,15.352z M6.572,17.238
	c-0.442,0-0.8,0.357-0.8,0.799c0,0.442,0.358,0.801,0.8,0.801c0.441,0,0.8-0.358,0.8-0.801l0,0c0.001-0.441-0.356-0.801-0.798-0.802
	l0,0L6.572,17.238z M18.041,12.501c-0.441,0-0.799,0.357-0.799,0.799c0,0.442,0.357,0.801,0.799,0.801
	c0.442,0,0.801-0.357,0.801-0.801l0,0c0-0.441-0.357-0.799-0.799-0.801L18.041,12.501z M16.132,15.351
	c-0.441,0-0.799,0.357-0.799,0.8s0.357,0.8,0.799,0.8c0.442,0,0.801-0.357,0.801-0.8l0,0c0-0.441-0.356-0.8-0.799-0.801
	L16.132,15.351z M13.298,17.236c-0.441,0-0.801,0.358-0.801,0.801c0,0.441,0.359,0.799,0.801,0.799s0.8-0.357,0.8-0.799l0,0
	c0.001-0.441-0.356-0.801-0.798-0.802L13.298,17.236z"/>
</svg>
