<svg xmlns="http://www.w3.org/2000/svg" width="29" height="29" viewBox="0 0 29 29"><defs><style>.a{fill:transparent;}.b{fill:#777;}</style></defs><rect class="a" width="29" height="29"/><g transform="translate(4 7)"><path class="b" d="M16.889,3H4.444A4.45,4.45,0,0,0,0,7.444v7.111A4.45,4.45,0,0,0,4.444,19H16.889a4.45,4.45,0,0,0,4.444-4.444V7.444A4.45,4.45,0,0,0,16.889,3Zm2.667,11.556a2.667,2.667,0,0,1-2.667,2.667H4.444a2.667,2.667,0,0,1-2.667-2.667V7.444A2.667,2.667,0,0,1,4.444,4.778H16.889a2.667,2.667,0,0,1,2.667,2.667Z" transform="translate(0 -3)"/><rect class="b" width="13.333" height="2" rx="1" transform="translate(4 9.625)"/></g></svg>