<svg xmlns="http://www.w3.org/2000/svg" width="18.425" height="22.01" viewBox="0 0 18.425 22.01"><defs><style>.a{fill:#4c9f70;stroke:#4c9f70;stroke-width:0.5px;}</style></defs><path class="a" fill="#5cb772" d="M18.087,4.962,14.964,1.837A6.236,6.236,0,0,0,10.528,0H6.481A4.487,4.487,0,0,0,2,4.481V17.029A4.487,4.487,0,0,0,6.481,21.51h8.962a4.487,4.487,0,0,0,4.481-4.481V9.4a6.23,6.23,0,0,0-1.838-4.435ZM16.819,6.229a4.466,4.466,0,0,1,.7.941H13.651a.9.9,0,0,1-.9-.9V2.406a4.49,4.49,0,0,1,.942.7Zm1.313,10.8a2.689,2.689,0,0,1-2.689,2.689H6.481a2.689,2.689,0,0,1-2.689-2.689V4.481A2.689,2.689,0,0,1,6.481,1.792h4.047c.147,0,.289.029.435.042V6.274a2.689,2.689,0,0,0,2.689,2.689H18.09c.013.145.042.287.042.435Z" transform="translate(-1.75 0.25)"/></svg>