<svg xmlns="http://www.w3.org/2000/svg" width="25.792" height="20.508" viewBox="0 0 25.792 20.508"><defs><style>.a,.b{fill:#4c9f70;}.a{stroke:#4c9f70;stroke-width:0.5px;}.b{font-size:5px;font-family:Inter-Black, Inter;font-weight:800;letter-spacing:0.005em;}</style></defs><g transform="translate(-411.298 -1075.567)"><g transform="translate(411.548 1075.855)"><path class="a" fill="#5cb772" d="M12.648,54.413a9.961,9.961,0,1,0,0,19.183,9.96,9.96,0,1,0,0-19.183ZM1.488,64a8.481,8.481,0,0,1,8.612-8.47,9.953,9.953,0,0,0,0,16.941A8.481,8.481,0,0,1,1.488,64Zm13.844,8.472A8.472,8.472,0,1,1,23.8,64,8.481,8.481,0,0,1,15.332,72.477Z" transform="translate(0 -54.039)"/></g><text fill="#5cb772" class="b" transform="translate(422.548 1087.649)"><tspan x="0" y="0">IDR</tspan></text></g></svg>