<svg xmlns="http://www.w3.org/2000/svg" width="21.973" height="23.63" viewBox="0 0 21.973 23.63"><defs><style>.a{fill:#4c9f70;stroke:#4c9f70;stroke-width:0.2px;}</style></defs><path class="a" fill="#5cb772"  d="M11.738,15.619a2.929,2.929,0,0,0,1.31-.307L15,14.337a2.915,2.915,0,0,0,1.619-2.622v-2.9A2.914,2.914,0,0,0,15,6.2l-1.952-.976a2.942,2.942,0,0,0-2.619,0L8.477,6.2a2.914,2.914,0,0,0-1.62,2.619v2.9a2.915,2.915,0,0,0,1.619,2.62l1.952.976a2.929,2.929,0,0,0,1.31.308Zm-2.929-3.9v-2.9a.976.976,0,0,1,.05-.293l2.128,1.064a1.679,1.679,0,0,0,1.5,0l2.128-1.064a.976.976,0,0,1,.05.293v2.9a.97.97,0,0,1-.54.874l-1.952.976a.985.985,0,0,1-.874,0l-1.952-.976a.97.97,0,0,1-.539-.874Zm9.762,9.762H15.927l3.4-3.145a10.738,10.738,0,1,0-15.158.027l3.377,3.118H4.9a.976.976,0,0,0,0,1.952H18.572a.976.976,0,1,0,0-1.952ZM5.526,4.526a8.786,8.786,0,0,1,12.453,12.4l-3.89,3.593A3.429,3.429,0,0,1,9.367,20.5L5.526,16.951a8.8,8.8,0,0,1,0-12.425Z" transform="translate(-0.752 0.101)"/></svg>