<svg xmlns="http://www.w3.org/2000/svg" width="29" height="29" viewBox="0 0 29 29"><defs><style>.a{fill:transparent;}.b{fill:#777;}</style></defs><g transform="translate(-1362 -976)"><rect class="a" width="29" height="29" transform="translate(1362 976)"/><path class="b" d="M9.585,9.877a.823.823,0,1,1,0,1.646H7.115a.823.823,0,1,1,0-1.646Zm4.938-2.469a.823.823,0,0,0-.823-.823H7.115a.823.823,0,0,0,0,1.646H13.7A.823.823,0,0,0,14.523,7.408ZM7.115,4.938H13.7a.823.823,0,1,0,0-1.646H7.115a.823.823,0,1,0,0,1.646ZM16.992,16v3.155a.593.593,0,0,1-1.013.42l-.633-.632-.633.632a.593.593,0,0,1-1.013-.42V16a3.282,3.282,0,0,1,1.646-6.127,3.242,3.242,0,0,1,.823.117V4.115A2.469,2.469,0,0,0,13.7,1.646H7.115A2.469,2.469,0,0,0,4.646,4.115v9.877a2.469,2.469,0,0,0,2.469,2.469h4.115a.823.823,0,0,1,0,1.646H7.115A4.12,4.12,0,0,1,3,13.992V4.115A4.12,4.12,0,0,1,7.115,0H13.7a4.12,4.12,0,0,1,4.115,4.115v6.9A3.251,3.251,0,0,1,16.992,16Zm0-2.835a1.646,1.646,0,1,0-1.646,1.646A1.646,1.646,0,0,0,16.992,13.169Z" transform="translate(1365.681 980.124)"/></g></svg>