<?xml version="1.0" encoding="utf-8"?>
<!-- Generator: Adobe Illustrator 16.0.0, SVG Export Plug-In . SVG Version: 6.00 Build 0)  -->
<!DOCTYPE svg PUBLIC "-//W3C//DTD SVG 1.1//EN" "http://www.w3.org/Graphics/SVG/1.1/DTD/svg11.dtd">
<svg version="1.1" id="Layer_1" xmlns="http://www.w3.org/2000/svg" xmlns:xlink="http://www.w3.org/1999/xlink" x="0px" y="0px"
	 width="20.344px" height="18.648px" viewBox="0 0 20.344 18.648" enable-background="new 0 0 20.344 18.648" xml:space="preserve">
<path fill="#010101" d="M16.106,0H4.238C1.898,0.003,0.003,1.898,0,4.238V14.41c0.003,2.34,1.898,4.234,4.238,4.238h11.868
	c2.339-0.004,4.235-1.898,4.237-4.238V4.238C20.342,1.898,18.445,0.003,16.106,0z M4.238,1.7h11.868
	c1.038,0.002,1.971,0.635,2.355,1.6l-6.491,6.492c-0.994,0.992-2.604,0.992-3.6,0L1.882,3.295C2.269,2.333,3.201,1.702,4.238,1.7z
	 M16.106,16.953H4.238C2.836,16.95,1.7,15.813,1.7,14.41v-8.9l5.479,5.477c1.657,1.652,4.339,1.652,5.995,0l5.475-5.477v8.9
	C18.648,15.814,17.51,16.952,16.106,16.953z"/>
</svg>
