<?xml version="1.0" encoding="utf-8"?>
<!-- Generator: Adobe Illustrator 25.2.1, SVG Export Plug-In . SVG Version: 6.00 Build 0)  -->
<svg version="1.1" id="Layer_1" xmlns="http://www.w3.org/2000/svg" xmlns:xlink="http://www.w3.org/1999/xlink" x="0px" y="0px"
	 viewBox="0 0 20.8 19.1" style="enable-background:new 0 0 20.8 19.1;" xml:space="preserve">
<g id="fi-rr-envelope">
	<path fill="#4C9F70" d="M16.4,0H4.5C2,0,0,2,0,4.5v10.2c0,2.5,2,4.5,4.5,4.5h11.9c2.5,0,4.5-2,4.5-4.5V4.5C20.8,2,18.8,0,16.4,0z M18.7,14.7
		c0,1.3-1,2.3-2.3,2.3H4.5c-1.3,0-2.3-1-2.3-2.3V6.4l5,5c1.8,1.8,4.6,1.7,6.3,0l5.1-5V14.7z M4.5,2.2h11.9c0.9,0,1.7,0.5,2,1.3
		L12,9.9c-0.9,0.9-2.3,0.9-3.2,0L2.4,3.5C2.8,2.7,3.6,2.2,4.5,2.2z"/>
</g>
</svg>
