<?xml version="1.0" encoding="utf-8"?>
<!-- Generator: Adobe Illustrator 16.0.0, SVG Export Plug-In . SVG Version: 6.00 Build 0)  -->
<!DOCTYPE svg PUBLIC "-//W3C//DTD SVG 1.1//EN" "http://www.w3.org/Graphics/SVG/1.1/DTD/svg11.dtd">
<svg version="1.1" id="Layer_1" xmlns="http://www.w3.org/2000/svg" xmlns:xlink="http://www.w3.org/1999/xlink" x="0px" y="0px"
	 width="16.125px" height="16.125px" viewBox="0 0 16.125 16.125" enable-background="new 0 0 16.125 16.125" xml:space="preserve">
<path fill="#FFFFFF" d="M15.454,6.046l-5.069-5.069c-1.307-1.303-3.421-1.303-4.728,0L0.588,6.046C0.211,6.421-0.002,6.932,0,7.464
	v6.563c0,1.105,0.897,2.004,2.005,2.004l0,0h12.031c1.106,0,2.005-0.897,2.005-2.004l0,0V7.464
	C16.043,6.931,15.831,6.421,15.454,6.046z M10.025,14.695h-4.01v-2.631c0-1.107,0.898-2.007,2.006-2.007s2.004,0.898,2.004,2.007
	l0,0V14.695z M14.705,14.027c0,0.367-0.299,0.668-0.668,0.668l0,0h-2.674v-2.631c0-1.846-1.496-3.342-3.342-3.342
	c-1.846-0.002-3.342,1.494-3.342,3.34c0,0.002,0,0.002,0,0.002v2.629H2.004c-0.368,0-0.668-0.299-0.668-0.668l0,0V7.464
	c0.002-0.178,0.073-0.348,0.2-0.473l5.063-5.069c0.785-0.78,2.053-0.78,2.838,0l5.068,5.071c0.127,0.124,0.198,0.293,0.2,0.471
	L14.705,14.027z"/>
<path display="none" fill="#111111" d="M20,22.677c0.313,0.003,0.621-0.069,0.9-0.21l1.336-0.668
	c0.683-0.34,1.111-1.038,1.107-1.799v-1.979c0.002-0.759-0.428-1.453-1.107-1.793l-1.34-0.668c-0.564-0.281-1.229-0.281-1.792,0
	l-1.337,0.668c-0.681,0.338-1.11,1.033-1.109,1.793v1.983c-0.002,0.762,0.428,1.455,1.108,1.793l1.337,0.668
	c0.279,0.141,0.588,0.212,0.9,0.211L20,22.677L20,22.677z M17.996,20.004v-1.983c0-0.067,0.012-0.135,0.033-0.199l1.457,0.729
	c0.324,0.162,0.705,0.162,1.028,0l1.457-0.729c0.021,0.064,0.032,0.132,0.034,0.199v1.983c0.002,0.255-0.144,0.487-0.371,0.602
	l-1.335,0.666c-0.189,0.095-0.412,0.095-0.601,0l-1.334-0.668c-0.228-0.113-0.37-0.347-0.368-0.602V20.004z M24.68,26.684h-1.813
	l2.331-2.154c2.87-2.871,2.87-7.525,0-10.396c-2.872-2.871-7.527-2.871-10.398,0c-2.87,2.872-2.87,7.527,0.002,10.398
	c0.006,0.006,0.012,0.012,0.018,0.018l2.313,2.135h-1.812c-0.369,0-0.669,0.301-0.669,0.67s0.3,0.668,0.669,0.668h9.359
	c0.368,0,0.668-0.299,0.668-0.668S25.048,26.684,24.68,26.684L24.68,26.684z M15.748,15.083c2.345-2.354,6.154-2.363,8.507-0.02
	c2.354,2.345,2.363,6.154,0.021,8.507l-2.664,2.461c-0.908,0.857-2.33,0.852-3.232-0.012l-2.631-2.433
	C13.404,21.238,13.404,17.434,15.748,15.083z"/>
<g transform="translate(1173.687 -2734.115)" display="none">
	<g transform="translate(0.313 0.115)" display="inline">
		<path fill="none" stroke="#111111" stroke-width="2" stroke-miterlimit="10" d="M-1159,2746h10c1.656,0,3,1.344,3,3v10
			c0,1.656-1.344,3-3,3h-10c-1.656,0-3-1.344-3-3v-10C-1162,2747.344-1160.656,2746-1159,2746z"/>
		<path display="none" fill="#111111" d="M-1159,2747h10c1.104,0,2,0.896,2,2v10c0,1.104-0.896,2-2,2h-10c-1.104,0-2-0.896-2-2v-10
			C-1161,2747.896-1160.104,2747-1159,2747z"/>
	</g>
	<path display="inline" fill="#111111" d="M-1150.393,2754.085c0,0.364-0.295,0.659-0.659,0.659l0,0h-1.976v1.977
		c-0.001,0.363-0.296,0.658-0.659,0.658c-0.364,0-0.658-0.295-0.659-0.658v-1.977h-1.977c-0.364,0-0.659-0.295-0.659-0.659
		c0-0.364,0.295-0.659,0.659-0.659h1.977v-1.977c0.001-0.363,0.296-0.658,0.659-0.658c0.364,0,0.658,0.295,0.659,0.658v1.977h1.976
		C-1150.688,2753.426-1150.393,2753.72-1150.393,2754.085z"/>
</g>
</svg>
