<?xml version="1.0" encoding="utf-8"?>
<!-- Generator: Adobe Illustrator 16.0.0, SVG Export Plug-In . SVG Version: 6.00 Build 0)  -->
<!DOCTYPE svg PUBLIC "-//W3C//DTD SVG 1.1//EN" "http://www.w3.org/Graphics/SVG/1.1/DTD/svg11.dtd">
<svg version="1.1" id="Layer_1" xmlns="http://www.w3.org/2000/svg" xmlns:xlink="http://www.w3.org/1999/xlink" x="0px" y="0px"
	 width="14.703px" height="16.5px" viewBox="0 0 14.703 16.5" enable-background="new 0 0 14.703 16.5" xml:space="preserve">
<path display="none" fill="#FFFFFF" d="M27.794,18.707l-5.069-5.068c-1.307-1.304-3.42-1.304-4.728,0l-5.069,5.068
	c-0.377,0.375-0.59,0.886-0.588,1.418v6.563c0,1.105,0.896,2.004,2.006,2.004l0,0h12.03c1.106,0,2.005-0.896,2.005-2.004l0,0v-6.563
	C28.383,19.592,28.171,19.082,27.794,18.707z M22.365,27.355h-4.01v-2.631c0-1.107,0.897-2.008,2.006-2.008
	c1.107,0,2.004,0.898,2.004,2.008l0,0V27.355z M27.045,26.688c0,0.367-0.299,0.668-0.668,0.668l0,0h-2.674v-2.631
	c0-1.846-1.496-3.342-3.342-3.342c-1.846-0.002-3.342,1.494-3.342,3.34c0,0.002,0,0.002,0,0.002v2.629h-2.676
	c-0.367,0-0.668-0.299-0.668-0.668l0,0v-6.561c0.002-0.178,0.073-0.348,0.2-0.473l5.063-5.069c0.785-0.78,2.053-0.78,2.838,0
	l5.068,5.071c0.127,0.123,0.197,0.293,0.199,0.471V26.688z"/>
<path fill="#6BBB71" d="M7.352,10.697c0.313,0.003,0.621-0.069,0.9-0.211l1.336-0.668c0.684-0.34,1.111-1.037,1.107-1.798V6.041
	c0.002-0.759-0.428-1.453-1.107-1.793L8.249,3.58c-0.564-0.281-1.229-0.281-1.792,0L5.119,4.248C4.438,4.586,4.009,5.281,4.01,6.041
	v1.983C4.008,8.786,4.438,9.479,5.118,9.816l1.337,0.668c0.279,0.142,0.588,0.213,0.9,0.211L7.352,10.697L7.352,10.697z
	 M5.348,8.024V6.041c0-0.067,0.012-0.135,0.033-0.199l1.457,0.729c0.324,0.162,0.705,0.162,1.028,0l1.457-0.729
	c0.021,0.064,0.032,0.132,0.034,0.199v1.983c0.002,0.255-0.145,0.487-0.371,0.602L7.651,9.292c-0.189,0.095-0.412,0.095-0.601,0
	L5.716,8.624C5.488,8.51,5.346,8.277,5.348,8.022V8.024z M12.032,14.704h-1.813l2.331-2.154c2.87-2.87,2.87-7.525,0-10.396
	c-2.872-2.871-7.527-2.871-10.398,0c-2.87,2.872-2.87,7.528,0.002,10.398c0.006,0.007,0.012,0.013,0.018,0.019l2.313,2.135H2.673
	c-0.369,0-0.669,0.301-0.669,0.67s0.3,0.668,0.669,0.668h9.359c0.368,0,0.668-0.299,0.668-0.668S12.4,14.704,12.032,14.704
	L12.032,14.704z M3.1,3.103c2.345-2.354,6.154-2.363,8.507-0.02c2.354,2.345,2.363,6.153,0.021,8.507l-2.664,2.461
	c-0.907,0.857-2.33,0.852-3.232-0.012L3.1,11.607C0.756,9.258,0.756,5.454,3.1,3.103z"/>
<g transform="translate(1173.687 -2734.115)" display="none">
	<g transform="translate(0.313 0.115)" display="inline">
		<path fill="none" stroke="#000000" stroke-width="2" stroke-miterlimit="10" d="M-1159,2746h10c1.656,0,3,1.344,3,3v10
			c0,1.656-1.344,3-3,3h-10c-1.656,0-3-1.344-3-3v-10C-1162,2747.344-1160.656,2746-1159,2746z"/>
		<path display="none" fill="#FFFFFF" d="M-1159,2747h10c1.104,0,2,0.896,2,2v10c0,1.104-0.896,2-2,2h-10c-1.104,0-2-0.896-2-2v-10
			C-1161,2747.896-1160.104,2747-1159,2747z"/>
	</g>
	<path display="inline" fill="#FFFFFF" d="M-1150.393,2754.085c0,0.364-0.295,0.659-0.659,0.659l0,0h-1.976v1.977
		c-0.001,0.363-0.296,0.658-0.659,0.658c-0.364,0-0.658-0.295-0.659-0.658v-1.977h-1.978c-0.363,0-0.658-0.295-0.658-0.659
		s0.295-0.659,0.658-0.659h1.978v-1.977c0.001-0.363,0.296-0.658,0.659-0.658c0.364,0,0.658,0.295,0.659,0.658v1.977h1.976
		C-1150.688,2753.426-1150.393,2753.72-1150.393,2754.085z"/>
</g>
</svg>
