<svg xmlns="http://www.w3.org/2000/svg" width="21.64" height="18.293" viewBox="0 0 21.64 18.293"><defs><style>.a{fill:#4c9f70;stroke:#4c9f70;stroke-width:0.8px;}</style></defs><g transform="translate(0.4 0.438)"><path class="a" d="M18.946,13.162H1.894A1.89,1.89,0,0,1,0,11.281V1.88A1.89,1.89,0,0,1,1.894,0H4.456V.94H1.894a.944.944,0,0,0-.948.94v9.4a.944.944,0,0,0,.948.94H18.946a.944.944,0,0,0,.948-.94V1.88a.944.944,0,0,0-.948-.94H16.383V0h2.562A1.89,1.89,0,0,1,20.84,1.88v9.4A1.89,1.89,0,0,1,18.946,13.162Z" transform="translate(0 4.293)"/><g transform="translate(5.878)"><g transform="translate(0 0.002)"><path class="a" d="M12.721,2.6a.329.329,0,0,1-.23-.094L10.772.784,9.052,2.505a.329.329,0,0,1-.46-.46L10.543.1A.329.329,0,0,1,11,.1l1.949,1.949a.329.329,0,0,1-.23.554Z" transform="translate(-8.53 -0.002)"/><path class="a" d="M11.829,10.365c-.18,0-.329-.258-.329-.576V.576c0-.318.146-.576.329-.576s.329.258.329.576V9.789C12.149,10.107,12,10.365,11.829,10.365Z" transform="translate(-9.583 0.645)"/></g><g transform="translate(9.489 11.009) rotate(180)"><path class="a" d="M4.263,2.6a.329.329,0,0,1-.23-.094L2.314.782.6,2.5a.329.329,0,1,1-.46-.46L2.085.094a.329.329,0,0,1,.46,0L4.494,2.043a.329.329,0,0,1-.23.554Z" transform="translate(0)"/><path class="a" d="M.329,10.365c-.18,0-.329-.258-.329-.576V.576C0,.258.146,0,.329,0S.658.258.658.576V9.789C.649,10.107.5,10.365.329,10.365Z" transform="translate(1.989 0.644)"/></g></g></g></svg>