<?xml version="1.0" encoding="utf-8"?>
<!-- Generator: Adobe Illustrator 16.0.0, SVG Export Plug-In . SVG Version: 6.00 Build 0)  -->
<!DOCTYPE svg PUBLIC "-//W3C//DTD SVG 1.1//EN" "http://www.w3.org/Graphics/SVG/1.1/DTD/svg11.dtd">
<svg version="1.1" id="Layer_1" xmlns="http://www.w3.org/2000/svg" xmlns:xlink="http://www.w3.org/1999/xlink" x="0px" y="0px"
	 width="24.813px" height="24.868px" viewBox="0 0 24.813 24.868" enable-background="new 0 0 24.813 24.868" xml:space="preserve">
<g transform="translate(9 -4447)">
	<g transform="translate(0 4445)" display="none">
		<g transform="translate(139 48)" display="inline">
			<g transform="translate(42.491 6.277)">
				<path fill="#4C9F70" d="M-755.094,191.666l-1.637-3.699h-10.79l-1.61,3.699h-5.557l8.858-19.969h7.409l9.26,19.969H-755.094z
					 M-758.582,183.856l-3.624-8.132l-3.516,8.132H-758.582z"/>
				<path fill="#4C9F70" d="M-737.861,191.963c-2.403,0.09-4.786-0.467-6.9-1.611c-1.577-0.859-2.845-2.192-3.623-3.811
					c-0.707-1.416-1.065-2.98-1.047-4.563v-0.721c-0.018-1.536,0.332-3.054,1.02-4.428c0.785-1.607,2.041-2.937,3.6-3.812
					c2.177-1.126,4.609-1.672,7.059-1.584h0.912c3.973,0,6.97,0.77,8.992,2.308c1.549,1.098,2.47,2.879,2.47,4.778v0.054h-5.718
					l-0.322-0.644c-0.663-0.887-1.644-1.483-2.737-1.664c-1.02-0.243-2.066-0.351-3.114-0.322c-1.848-0.153-3.676,0.469-5.046,1.718
					c-0.931,1.014-1.423,2.355-1.369,3.731v0.349c0,0.7,0.118,1.394,0.349,2.054c0.231,0.668,0.606,1.278,1.1,1.785
					c1.378,1.322,3.249,2.004,5.154,1.879c1.665,0.102,3.314-0.371,4.67-1.342c0.368-0.289,0.677-0.645,0.913-1.047
					c0.111-0.233,0.2-0.476,0.268-0.725h-5.422v-3.57h11.515v10.9h-4.4c-0.018-0.232,0-0.691,0-1.422v-2.1
					c-0.404,0.515-0.843,1.001-1.315,1.455c-1.009,0.91-2.211,1.58-3.516,1.961c-0.995,0.285-2.026,0.42-3.06,0.399
					L-737.861,191.963z"/>
				<path fill="#4C9F70" d="M-700.955,183.816c0.79,0.96,1.191,2.181,1.127,3.423v2.066c-0.02,0.521,0.016,1.043,0.108,1.557
					c0.047,0.23,0.12,0.456,0.215,0.672v0.133h-5.717c-0.044-0.141-0.08-0.284-0.107-0.43c-0.065-0.317-0.092-0.642-0.081-0.966
					v-1.637c0.093-1.03-0.209-2.058-0.846-2.872c-0.802-0.673-1.843-0.992-2.885-0.887h-7.194v6.791h-5.529v-19.969h13.447
					c3.364,0,5.726,0.617,7.086,1.852c0.941,0.909,1.44,2.182,1.369,3.489v0.269c0.031,1.133-0.378,2.234-1.141,3.073
					c-0.824,0.867-1.898,1.453-3.073,1.677C-702.944,182.288-701.816,182.904-700.955,183.816z M-716.336,180.34h7.7
					c0.813,0.068,1.624-0.161,2.281-0.644c0.41-0.377,0.627-0.92,0.591-1.476v-0.054c0.036-0.556-0.181-1.099-0.591-1.477
					c-0.668-0.457-1.475-0.666-2.281-0.59h-7.7V180.34z"/>
				<path fill="#4C9F70" d="M-684.581,171.375c1.933-0.045,3.859,0.25,5.69,0.872c1.438,0.495,2.743,1.316,3.811,2.4
					c0.841,0.884,1.487,1.936,1.893,3.087c0.396,1.121,0.6,2.301,0.6,3.489v0.805c-0.002,1.184-0.205,2.359-0.6,3.476
					c-0.404,1.156-1.05,2.213-1.893,3.1c-1.071,1.112-2.384,1.962-3.838,2.482c-1.817,0.64-3.736,0.944-5.663,0.9h-1.181
					c-2.516,0.084-5.012-0.479-7.247-1.638c-1.609-0.854-2.904-2.199-3.7-3.838c-0.701-1.39-1.06-2.926-1.047-4.482v-0.805
					c-0.013-1.556,0.346-3.093,1.047-4.482c0.799-1.624,2.096-2.949,3.7-3.785c2.245-1.127,4.737-1.672,7.247-1.584
					L-684.581,171.375z M-678.327,181.44c0.056-1.35-0.416-2.668-1.315-3.676c-1.127-1.217-2.971-1.826-5.53-1.826
					c-2.506,0-4.339,0.609-5.5,1.826c-0.915,1-1.397,2.322-1.342,3.676v0.376c0.001,0.667,0.11,1.328,0.323,1.959
					c0.213,0.646,0.57,1.233,1.044,1.722c1.181,1.271,3.005,1.906,5.475,1.905c2.541,0,4.384-0.636,5.53-1.905
					c0.899-1.009,1.371-2.328,1.315-3.678V181.44z"/>
				<path fill="#4C9F70" d="M-660.237,192.016c-2.349,0.105-4.692-0.297-6.872-1.179c-1.252-0.546-2.29-1.489-2.952-2.685
					c-0.428-0.857-0.64-1.807-0.617-2.765v-0.3h6.013c0.016,0.674,0.304,1.313,0.8,1.771c0.733,0.733,2.031,1.101,3.893,1.101h0.188
					c1.353,0.109,2.71-0.16,3.919-0.778c0.529-0.359,0.826-0.974,0.778-1.611c0.037-0.597-0.275-1.161-0.8-1.448
					c-1.04-0.423-2.153-0.633-3.275-0.619l-2.657-0.08c-3.06-0.108-5.314-0.734-6.764-1.879c-1.229-0.933-1.929-2.404-1.879-3.946
					v-0.241c-0.094-1.603,0.609-3.149,1.879-4.133c1.592-1.181,4.276-1.771,8.052-1.772h0.912c3.933,0,6.716,0.644,8.348,1.933
					c1.151,0.965,1.778,2.419,1.69,3.919v0.294h-5.932c-0.05-0.274-0.136-0.541-0.255-0.792c-0.136-0.263-0.333-0.489-0.577-0.657
					c-1.123-0.586-2.388-0.847-3.651-0.752h-0.268c-1.19-0.073-2.384,0.082-3.516,0.456c-0.733,0.332-1.058,1.195-0.726,1.928
					c0.129,0.285,0.346,0.52,0.618,0.672c0.981,0.427,2.043,0.638,3.113,0.618l2.765,0.107c3.346,0.125,5.708,0.725,7.086,1.8
					c1.206,0.987,1.856,2.499,1.744,4.053v0.322c0.095,1.665-0.554,3.288-1.771,4.429c-1.667,1.486-4.502,2.229-8.508,2.229
					L-660.237,192.016z"/>
				<path fill="#4C9F70" d="M-729.54,191.662"/>
			</g>
			<path fill="#4C9F70" d="M-742.26,190.122h-10.644l7.526,7.522c0.256,0.258,0.273,0.668,0.04,0.945
				c-0.323,0.389-0.664,0.762-1.021,1.118s-0.727,0.7-1.112,1.017c-0.277,0.234-0.688,0.218-0.946-0.039l-7.528-7.527v10.648
				c0.001,0.363-0.277,0.668-0.64,0.699c-0.498,0.045-1.001,0.068-1.51,0.068c-0.508,0-1.011-0.022-1.506-0.067
				c-0.363-0.031-0.641-0.335-0.64-0.7v-10.647l-7.53,7.53c-0.25,0.254-0.652,0.276-0.929,0.052
				c-0.341-0.284-0.671-0.581-0.989-0.894c-0.1-0.092-0.188-0.185-0.281-0.281c-0.309-0.316-0.606-0.646-0.891-0.987
				c-0.226-0.276-0.204-0.68,0.051-0.931l7.529-7.524h-10.643c-0.365,0.001-0.669-0.277-0.7-0.64
				c-0.045-0.498-0.068-1.001-0.068-1.51c0-0.509,0.022-1.012,0.068-1.509c0.031-0.363,0.335-0.642,0.7-0.641h10.648l-7.53-7.531
				c-0.255-0.257-0.273-0.667-0.04-0.944c0.321-0.387,0.661-0.758,1.017-1.115c0.357-0.357,0.73-0.7,1.119-1.021
				c0.278-0.233,0.687-0.216,0.944,0.04l7.527,7.527v-10.642c-0.001-0.364,0.277-0.668,0.64-0.7
				c0.496-0.045,0.998-0.067,1.506-0.067c0.508,0,1.012,0.022,1.51,0.067c0.363,0.031,0.642,0.335,0.64,0.7v10.646l7.526-7.525
				c0.257-0.256,0.667-0.273,0.945-0.039c0.388,0.323,0.759,0.662,1.115,1.018s0.696,0.728,1.019,1.115
				c0.234,0.277,0.217,0.688-0.039,0.945l-7.526,7.525h10.645c0.365-0.001,0.669,0.278,0.7,0.641c0.045,0.498,0.068,1,0.068,1.509
				c0,0.509-0.023,1.012-0.068,1.51C-741.589,189.846-741.895,190.125-742.26,190.122z"/>
		</g>
	</g>
	<g transform="translate(1108 4490)" display="none">
		<g transform="matrix(1, 0, 0, 1, -1117, -43)" display="inline">
			<path fill="#4C9F70" d="M347.313,214.375h109c2.762,0,5,2.239,5,5v30c0,2.762-2.238,5-5,5h-109c-2.762,0-5-2.238-5-5v-30
				C342.313,216.614,344.551,214.375,347.313,214.375z"/>
		</g>
		<g transform="translate(25 14)" display="inline">
			<text transform="matrix(1 0 0 1 -774.877 181.375)" fill="#4C9F70" font-family="'ArialMT'" font-size="12">LOGOUT</text>
		</g>
	</g>
	<text transform="matrix(1 0 0 1 -459.6875 4691.375)" fill="#4C9F70" font-family="'ArialMT'" font-size="12">SHIPPER</text>
	<path display="none" fill="#4C9F70" d="M184.313,4661.375v42.172"/>
	<path display="none" fill="#4C9F70" d="M277.313,4661.375v42.172"/>
	<path display="none" fill="#4C9F70" d="M218.313,4664.375h25c2.762,0,5,2.239,5,5v25c0,2.762-2.238,5-5,5h-25c-2.762,0-5-2.238-5-5
		v-25C213.313,4666.614,215.551,4664.375,218.313,4664.375z"/>
	<g transform="translate(990.761 4493)">
		<g transform="translate(0 5.499)">
			<path fill="#4C9F70" d="M-982.413-50.656c-3.578-1.142-7.494-0.214-10.179,2.413l-5.1,4.976c-2.22,2.174-2.261,5.736-0.09,7.96
				c0.286,0.292,0.604,0.552,0.946,0.776l0.73,0.48c-0.946,2.834,0.484,5.913,3.259,7.02c0.663,0.262,1.37,0.397,2.083,0.399
				c1.396-0.001,2.741-0.521,3.775-1.457l0.491,0.315c2.603,1.696,6.087,0.966,7.79-1.633c0.275-0.427,0.494-0.888,0.65-1.371
				l0.09-0.285h-0.005l2.168-6.824C-974.106-43.238-977.065-48.952-982.413-50.656z M-993.523-32.369l3.965,2.588
				c-0.875,0.418-1.903,0.357-2.724-0.16v-0.004C-993.09-30.481-993.561-31.4-993.523-32.369z M-978.514-38.761l-2.26,7.114
				c-0.263,0.827-0.898,1.483-1.718,1.771c-0.815,0.294-1.723,0.187-2.447-0.29l-10.335-6.754c-1.282-0.841-1.643-2.56-0.807-3.845
				c0.112-0.169,0.241-0.325,0.387-0.466l5.091-4.971c1.361-1.339,3.196-2.088,5.106-2.083c0.034-0.001,0.067,0,0.101,0.005
				c1.94,0.016,3.794,0.809,5.146,2.2C-978.362-44.148-977.695-41.333-978.514-38.761L-978.514-38.761z"/>
		</g>
	</g>
	<g transform="translate(898.863 4495.744)" display="none">
		<path display="inline" fill="#4C9F70" d="M-748.528,181.399l-8.277-8.273c-2.351-2.335-6.145-2.335-8.495,0l-8.256,8.273
			c-0.722,0.716-1.129,1.689-1.131,2.706v10.7c0.002,2.112,1.714,3.824,3.826,3.826h19.629c2.109-0.005,3.818-1.716,3.819-3.826
			v-10.7C-747.415,183.092-747.815,182.12-748.528,181.399z M-763.764,195.344v-3.748c-0.018-0.72,0.254-1.416,0.754-1.935
			c0.5-0.521,1.186-0.821,1.907-0.837c1.495-0.023,2.73,1.16,2.771,2.656v3.865L-763.764,195.344z M-750.702,194.807
			c0.002,0.295-0.234,0.535-0.529,0.537c-0.001,0-0.002,0-0.002,0h-3.81v-3.736c-0.007-3.311-2.689-5.993-6-6
			c-3.313,0.004-5.998,2.688-6.005,6v3.736h-3.809c-0.298,0-0.538-0.24-0.538-0.537v-10.701c0.005-0.143,0.062-0.279,0.161-0.383
			l8.267-8.262c1.066-1.053,2.781-1.053,3.848,0l8.268,8.273c0.099,0.101,0.154,0.236,0.155,0.377L-750.702,194.807z"/>
	</g>
</g>
</svg>
