<?xml version="1.0" encoding="utf-8"?>
<!-- Generator: Adobe Illustrator 16.0.0, SVG Export Plug-In . SVG Version: 6.00 Build 0)  -->
<!DOCTYPE svg PUBLIC "-//W3C//DTD SVG 1.1//EN" "http://www.w3.org/Graphics/SVG/1.1/DTD/svg11.dtd">
<svg version="1.1" id="Layer_1" xmlns="http://www.w3.org/2000/svg" xmlns:xlink="http://www.w3.org/1999/xlink" x="0px" y="0px"
	 width="16.874px" height="17.875px" viewBox="76.208 0 16.874 17.875" enable-background="new 76.208 0 16.874 17.875"
	 xml:space="preserve">
<g id="Group_9883" transform="translate(-382 -296.331)">
	<g id="fi-rr-settings" transform="translate(457.797 296.331)">
		<path id="Path_910" fill="#707070" d="M9.244,5.958c-1.646,0-2.979,1.334-2.979,2.979c0,1.645,1.333,2.979,2.979,2.979
			s2.979-1.334,2.979-2.979C12.223,7.292,10.89,5.958,9.244,5.958L9.244,5.958z M9.244,10.425c-0.822,0-1.489-0.666-1.489-1.488
			s0.667-1.489,1.489-1.489s1.488,0.667,1.488,1.489S10.066,10.425,9.244,10.425L9.244,10.425z"/>
		<path id="Path_911" fill="#707070" d="M16.166,10.352l-0.331-0.19c0.149-0.811,0.149-1.641,0-2.451l0.331-0.191
			c1.07-0.617,1.437-1.984,0.82-3.054c-0.617-1.069-1.984-1.436-3.055-0.819l-0.33,0.191c-0.627-0.535-1.346-0.949-2.123-1.223
			V2.234C11.478,1,10.478,0,9.244,0C8.012,0,7.012,1,7.012,2.234v0.382c-0.777,0.274-1.497,0.69-2.123,1.226L4.557,3.649
			c-1.07-0.617-2.438-0.25-3.055,0.82c-0.616,1.069-0.25,2.437,0.82,3.053l0,0l0.331,0.191c-0.149,0.81-0.149,1.64,0,2.451
			l-0.331,0.19c-1.07,0.616-1.437,1.983-0.82,3.054c0.617,1.069,1.984,1.436,3.055,0.819l0.33-0.19
			c0.627,0.534,1.347,0.948,2.123,1.221v0.383c0,1.234,1,2.234,2.234,2.234s2.234-1,2.234-2.234v-0.383
			c0.776-0.273,1.496-0.689,2.121-1.225l0.334,0.191c1.068,0.617,2.436,0.25,3.053-0.82C17.603,12.335,17.236,10.968,16.166,10.352
			L16.166,10.352z M14.266,7.54c0.253,0.914,0.253,1.879,0,2.793c-0.09,0.326,0.053,0.674,0.347,0.844l0.807,0.466
			c0.356,0.206,0.479,0.661,0.272,1.019c-0.205,0.355-0.66,0.479-1.018,0.272l0,0l-0.809-0.468c-0.293-0.168-0.662-0.117-0.9,0.123
			c-0.662,0.678-1.497,1.162-2.414,1.4c-0.33,0.084-0.561,0.381-0.56,0.721v0.934c-0.015,0.411-0.36,0.732-0.772,0.717
			c-0.39-0.014-0.702-0.326-0.717-0.717v-0.932c0-0.34-0.229-0.638-0.559-0.723c-0.918-0.238-1.752-0.722-2.414-1.4
			c-0.238-0.24-0.607-0.29-0.9-0.123l-0.807,0.468c-0.352,0.213-0.811,0.101-1.023-0.251s-0.101-0.811,0.252-1.023
			c0.008-0.006,0.018-0.011,0.026-0.016l0.808-0.466c0.293-0.17,0.436-0.517,0.346-0.845c-0.252-0.914-0.252-1.878,0-2.792
			C4.317,7.212,4.171,6.866,3.874,6.7L3.066,6.234C2.71,6.028,2.587,5.572,2.793,5.214c0.205-0.357,0.662-0.48,1.02-0.274
			l0.809,0.468c0.293,0.168,0.662,0.119,0.9-0.12c0.662-0.678,1.497-1.162,2.414-1.4C8.267,3.805,8.5,3.508,8.5,3.167V2.234
			c0.016-0.411,0.361-0.732,0.771-0.717c0.391,0.015,0.703,0.327,0.718,0.717v0.932c-0.001,0.34,0.229,0.637,0.56,0.722
			c0.917,0.238,1.752,0.722,2.414,1.4c0.238,0.24,0.607,0.291,0.9,0.123l0.807-0.467c0.352-0.213,0.811-0.101,1.023,0.251
			c0.213,0.352,0.101,0.81-0.251,1.023c-0.009,0.005-0.019,0.011-0.027,0.016L14.607,6.7c-0.292,0.169-0.434,0.515-0.344,0.841
			L14.266,7.54z"/>
	</g>
</g>
</svg>
