<svg xmlns="http://www.w3.org/2000/svg" width="29" height="29" viewBox="0 0 29 29"><defs><style>.a{fill:transparent;}.b{fill:#777;}</style></defs><rect class="a" width="29" height="29"/><path class="b" d="M10,12a.8.8,0,0,1-.8-.8,3.162,3.162,0,0,1,1.57-2.556,1.6,1.6,0,0,0,.8-1.7,1.619,1.619,0,0,0-1.28-1.28A1.6,1.6,0,0,0,8.4,7.241a.8.8,0,1,1-1.6,0,3.2,3.2,0,1,1,4.743,2.8A1.59,1.59,0,0,0,10.8,11.2a.8.8,0,0,1-.8.8Zm.634,7.008C12.362,18.313,18,15.583,18,9.634V5.5a3.994,3.994,0,0,0-2.741-3.8L10.252.041a.788.788,0,0,0-.5,0L4.741,1.7A3.994,3.994,0,0,0,2,5.5V9.634c0,5.25,5.6,8.461,7.322,9.32A1.865,1.865,0,0,0,10,19.2a1.794,1.794,0,0,0,.634-.192ZM14.755,3.219A2.4,2.4,0,0,1,16.4,5.5V9.634c0,4.946-4.87,7.289-6.362,7.889h0C8.527,16.768,3.6,13.967,3.6,9.634V5.5A2.4,2.4,0,0,1,5.245,3.219L10,1.643ZM10,13.6a.8.8,0,1,0,.8.8A.8.8,0,0,0,10,13.6Z" transform="translate(5 4.4)"/></svg>