<?xml version="1.0" encoding="utf-8"?>
<!-- Generator: Adobe Illustrator 16.0.0, SVG Export Plug-In . SVG Version: 6.00 Build 0)  -->
<!DOCTYPE svg PUBLIC "-//W3C//DTD SVG 1.1//EN" "http://www.w3.org/Graphics/SVG/1.1/DTD/svg11.dtd">
<svg version="1.1" id="Layer_1" xmlns="http://www.w3.org/2000/svg" xmlns:xlink="http://www.w3.org/1999/xlink" x="0px" y="0px"
	 width="44px" height="44px" viewBox="0 0 44 44" enable-background="new 0 0 44 44" xml:space="preserve">
<g transform="translate(-445 -545)">
	<path fill="#EFF8F1" d="M452,545h30c3.866,0,7,3.134,7,7v30c0,3.866-3.134,7-7,7h-30c-3.866,0-7-3.134-7-7v-30
		C445,548.134,448.134,545,452,545z"/>
	<g transform="translate(43.367 -519.294)">
		<g transform="translate(411.548 1075.855)">
			<path fill="#4C9F70" d="M13.248,0.392C7.699-1.163,1.94,2.075,0.386,7.624c-1.555,5.549,1.683,11.308,7.231,12.862
				c1.841,0.516,3.79,0.516,5.631,0c5.549,1.553,11.306-1.687,12.858-7.235S24.42,1.945,18.871,0.392
				C17.032-0.123,15.087-0.123,13.248,0.392z M1.558,10.439c0.005-4.906,3.987-8.878,8.893-8.873c0.042,0,0.085,0,0.127,0.001
				c-4.9,3.023-6.422,9.446-3.399,14.347c0.853,1.382,2.017,2.546,3.399,3.398c-4.905,0.076-8.943-3.84-9.019-8.745
				C1.559,10.524,1.558,10.482,1.558,10.439z M16.058,19.313c-4.9,0-8.874-3.974-8.874-8.874c0-4.901,3.973-8.874,8.874-8.874
				c4.901,0,8.875,3.973,8.875,8.874l0,0c-0.006,4.898-3.975,8.867-8.873,8.874H16.058z"/>
		</g>
		<text transform="matrix(1 0 0 1 422.2502 1088.2666)" fill="#4C9F70" font-family="'ArialMT'" font-size="6.3385">IDR</text>
	</g>
</g>
</svg>
