<?xml version="1.0" encoding="utf-8"?>
<!-- Generator: Adobe Illustrator 16.0.0, SVG Export Plug-In . SVG Version: 6.00 Build 0)  -->
<!DOCTYPE svg PUBLIC "-//W3C//DTD SVG 1.1//EN" "http://www.w3.org/Graphics/SVG/1.1/DTD/svg11.dtd">
<svg version="1.1" id="Layer_1" xmlns="http://www.w3.org/2000/svg" xmlns:xlink="http://www.w3.org/1999/xlink" x="0px" y="0px"
	 width="24.294px" height="24.294px" viewBox="0 0 24.294 24.294" enable-background="new 0 0 24.294 24.294" xml:space="preserve">
<g transform="translate(808.032 158.032)">
	<path fill="#010101" d="M-784.043-135.457l-5.97-5.97c3.502-4.281,2.869-10.592-1.414-14.094
		c-4.281-3.501-10.592-2.868-14.094,1.414c-3.501,4.283-2.868,10.593,1.414,14.094c3.689,3.017,8.992,3.017,12.68,0l5.97,5.969
		c0.384,0.398,1.017,0.409,1.414,0.025s0.408-1.017,0.024-1.414C-784.026-135.44-784.035-135.449-784.043-135.457z M-797.75-139.75
		c-4.418,0-8-3.582-8-8c0-4.418,3.582-8,8-8c4.418,0,8,3.582,8,8C-789.75-143.332-793.332-139.75-797.75-139.75z"/>
</g>
</svg>
