<svg xmlns="http://www.w3.org/2000/svg" width="21.588" height="16.191" viewBox="0 0 21.588 16.191"><defs><style>.a{fill:#4c9f70;}</style></defs><circle class="a" cx="1.349" cy="1.349" r="1.349" transform="translate(3.598 9.894)"/><path class="a" d="M17.09,3H4.5A4.454,4.454,0,0,0,0,7.5v7.2a4.454,4.454,0,0,0,4.5,4.5H17.09a4.454,4.454,0,0,0,4.5-4.5V7.5A4.454,4.454,0,0,0,17.09,3ZM4.5,4.8H17.09a2.65,2.65,0,0,1,2.7,2.7H1.8A2.65,2.65,0,0,1,4.5,4.8ZM17.09,17.392H4.5a2.65,2.65,0,0,1-2.7-2.7V9.3h17.99v5.4A2.65,2.65,0,0,1,17.09,17.392Z" transform="translate(0 -3)"/></svg>