<svg xmlns="http://www.w3.org/2000/svg" width="21.605" height="19.563" viewBox="0 0 21.605 19.563"><defs><style>.a{fill:#4c9f70;stroke:#4c9f70;stroke-width:0.8px;}</style></defs><g transform="translate(0.4 0.4)"><path class="a" d="M18.913,13.14H1.891A1.886,1.886,0,0,1,0,11.262V1.877A1.886,1.886,0,0,1,1.891,0H6.147V.939H1.891a.943.943,0,0,0-.945.939v9.384a.943.943,0,0,0,.945.939H18.913a.943.943,0,0,0,.945-.939V1.877a.943.943,0,0,0-.945-.939H14.658V0h4.255A1.886,1.886,0,0,1,20.8,1.877v9.385a1.886,1.886,0,0,1-1.891,1.878Z" transform="translate(0 5.623)"/><g transform="translate(6.921)"><path class="a" d="M14.5,3.692a.464.464,0,0,1-.326-.135L11.73,1.114,9.288,3.559a.462.462,0,0,1-.653-.653l2.77-2.77a.461.461,0,0,1,.653,0L14.827,2.9a.461.461,0,0,1-.326.787Z" transform="translate(-8.5 -0.001)"/><path class="a" d="M11.961,11.276c-.255,0-.461-.281-.461-.626V.626c0-.346.206-.626.461-.626s.461.281.461.626V10.65C12.423,10.995,12.217,11.276,11.961,11.276Z" transform="translate(-8.731 0.917)"/></g></g></svg>