<svg xmlns="http://www.w3.org/2000/svg" width="21.605" height="19.563" viewBox="0 0 21.605 19.563"><defs><style>.a{fill:#4c9f70;stroke:#4c9f70;stroke-width:0.8px;}</style></defs><g transform="translate(0.4 0.4)"><path class="a" d="M18.913,0H1.891A1.886,1.886,0,0,0,0,1.878v9.386A1.886,1.886,0,0,0,1.891,13.14H6.147V12.2H1.891a.943.943,0,0,1-.945-.939V1.878A.943.943,0,0,1,1.891.939H18.913a.943.943,0,0,1,.945.939v9.386a.943.943,0,0,1-.945.939H14.658v.938h4.255A1.886,1.886,0,0,0,20.8,11.263V1.878A1.886,1.886,0,0,0,18.913,0Z" transform="translate(0 0)"/><g transform="translate(6.921 6.57)"><path class="a" d="M14.5,0a.464.464,0,0,0-.326.135L11.73,2.581,9.288.136a.462.462,0,0,0-.653.653l2.77,2.77a.461.461,0,0,0,.653,0L14.827.79A.461.461,0,0,0,14.5,0Z" transform="translate(-8.5 8.498)"/><path class="a" d="M11.961,0c-.255,0-.461.281-.461.626V10.65c0,.346.206.626.461.626s.461-.281.461-.626V.626C12.423.281,12.217,0,11.961,0Z" transform="translate(-8.731)"/></g></g></svg>