<svg xmlns="http://www.w3.org/2000/svg" width="29" height="29" viewBox="0 0 29 29">
  <g id="Group_9904" data-name="Group 9904" transform="translate(-1362 -871)">
    <rect id="Rectangle_4065" data-name="Rectangle 4065" width="29" height="29" transform="translate(1362 871)" fill="#fff"/>
    <g id="fi-rr-comment-alt" transform="translate(1368 878)">
      <path id="Path_3790" data-name="Path 3790" d="M15,0H3A3,3,0,0,0,0,3v9a3,3,0,0,0,3,3H5.175l3.338,2.822a.75.75,0,0,0,.969,0L12.825,15H15a3,3,0,0,0,3-3V3A3,3,0,0,0,15,0Zm1.5,12A1.5,1.5,0,0,1,15,13.5H12.825a1.5,1.5,0,0,0-.968.355L9,16.267,6.145,13.855h0a1.5,1.5,0,0,0-.97-.355H3A1.5,1.5,0,0,1,1.5,12V3A1.5,1.5,0,0,1,3,1.5H15A1.5,1.5,0,0,1,16.5,3Z" fill="#777"/>
      <path id="Path_3791" data-name="Path 3791" d="M6.75,6.5H10.5a.75.75,0,0,0,0-1.5H6.75a.75.75,0,0,0,0,1.5Z" transform="translate(-1.5 -1.25)" fill="#777"/>
      <path id="Path_3792" data-name="Path 3792" d="M14.25,9H6.75a.75.75,0,0,0,0,1.5h7.5a.75.75,0,0,0,0-1.5Z" transform="translate(-1.5 -2.25)" fill="#777"/>
      <path id="Path_3793" data-name="Path 3793" d="M14.25,13H6.75a.75.75,0,1,0,0,1.5h7.5a.75.75,0,0,0,0-1.5Z" transform="translate(-1.5 -3.25)" fill="#777"/>
    </g>
  </g>
</svg>
